<?xml version="1.0" encoding="UTF-8" standalone="no"?>
<!DOCTYPE svg PUBLIC "-//W3C//DTD SVG 1.1//EN" "http://www.w3.org/Graphics/SVG/1.1/DTD/svg11.dtd">
<svg width="100%" height="100%" viewBox="0 0 193 294" version="1.1" xmlns="http://www.w3.org/2000/svg" xmlns:xlink="http://www.w3.org/1999/xlink" xml:space="preserve" xmlns:serif="http://www.serif.com/" style="fill-rule:evenodd;clip-rule:evenodd;stroke-linejoin:round;stroke-miterlimit:1.41421;">
    <g transform="matrix(1,0,0,1,-735,-42.903)">
        <path d="M814,40.5L814,67C814,81.085 813.05,94.98 812.089,109C809.406,148.183 803.454,188.738 790.456,226C786.333,237.818 781.5,249.908 775.68,261C771.455,269.051 765.494,276.693 762,285C778.106,281.308 793.744,276.051 810,272.8C815.156,271.769 825.165,271.794 828.757,267.682C831.908,264.076 834.025,259.178 836.305,255C843.783,241.295 848.515,226.374 851.08,211C854.395,191.134 857.326,169.137 854.711,149C852.07,128.671 843.271,108.821 835.603,90C830.626,77.782 825.146,65.798 819.247,54C817.316,50.138 815.393,43.441 811.61,41.028C808.99,39.357 804.954,40 802,40L781,40L814,40.5Z" style="fill:rgb(0,103,140);fill-rule:nonzero;"/>
    </g>
    <g transform="matrix(1,0,0,1,-735,-42.903)">
        <path d="M861,122C861.008,133.999 862.692,146.017 862.985,158C863.476,178.019 861.521,199.591 856.417,219C853.218,231.162 849.671,243.712 844.031,255C840.44,262.187 835.088,268.659 832,276C842.72,274.616 853.167,271.831 864,271.09C882.32,269.835 901.169,271.924 919,276C922.32,233.932 909.594,192.612 887.424,157C880.118,145.265 871.825,130.756 861,122Z" style="fill:rgb(0,103,140);fill-rule:nonzero;"/>
    </g>
    <g transform="matrix(1,0,0,1,-735,-42.903)">
        <path d="M791,297C801.134,295.119 811.739,295.807 822,294.83C846.698,292.478 871.351,290.115 896,287C891.849,278.312 881.549,278.003 873,278C853.036,277.992 833.528,280.433 814,284.668C806.225,286.354 793.469,288.41 791,297Z" style="fill:rgb(0,103,140);fill-rule:nonzero;"/>
    </g>
    <g transform="matrix(1,0,0,1,-735,-42.903)">
        <path d="M746,304C747.678,308.927 750.247,318.892 754.638,321.972C756.88,323.545 760.421,322.999 763,323C770.682,323.003 778.381,322.22 786,321.285C812.25,318.061 838.514,310.664 865,310.015C874.485,309.782 884.698,310.351 894,312.2C898.227,313.04 904.783,316.28 908.985,315.212C912.407,314.343 914.485,310.711 916.329,308C920.871,301.324 926.558,294.085 928,286C919.967,286.656 911.917,289.23 904,290.8C893.174,292.948 881.957,294.35 871,295.714C829.864,300.832 787.435,304 746,304Z" style="fill:rgb(0,103,140);fill-rule:nonzero;"/>
    </g>
    <g transform="matrix(1,0,0,1,-735,-42.903)">
        <path d="M735,327C747.835,337.259 770.532,336.001 786,336C816.652,335.998 846.62,327.063 877,324.17C890.752,322.86 904.338,325.413 918,326C904.479,315.777 882.11,316 866,316C840.89,316 816.741,323.457 792,326.711C772.583,329.264 754.368,328.529 735,327Z" style="fill:rgb(0,103,140);fill-rule:nonzero;"/>
    </g>
</svg>
