<?xml version="1.0" standalone="no"?>
<!DOCTYPE svg PUBLIC "-//W3C//DTD SVG 20010904//EN"
 "http://www.w3.org/TR/2001/REC-SVG-20010904/DTD/svg10.dtd">
<svg version="1.0" xmlns="http://www.w3.org/2000/svg"
 width="1176.000000pt" height="1176.000000pt" viewBox="0 0 1176.000000 1176.000000"
 preserveAspectRatio="xMidYMid meet">
<metadata>
Created by potrace 1.11, written by Peter Selinger 2001-2013
</metadata>
<g transform="translate(0.000000,1176.000000) scale(0.100000,-0.100000)"
fill="#000000" stroke="none">
<path d="M5180 11175 c-1 -715 -10 -1121 -25 -1146 -3 -4 -1 -10 5 -14 6 -4 7
-11 4 -17 -4 -5 -8 -40 -10 -77 -5 -88 -12 -223 -20 -351 -4 -58 -7 -120 -8
-137 0 -18 -3 -33 -6 -33 -3 0 -5 -33 -6 -73 -1 -39 -4 -112 -7 -162 -4 -49
-9 -121 -11 -160 -8 -113 -16 -217 -21 -260 -2 -22 -7 -76 -10 -120 -4 -44 -9
-100 -11 -125 -3 -25 -7 -67 -9 -95 -3 -27 -7 -68 -9 -90 -2 -22 -7 -74 -11
-115 -3 -41 -8 -86 -10 -100 -5 -30 -12 -95 -20 -170 -3 -30 -7 -71 -10 -90
-3 -19 -7 -57 -10 -85 -3 -27 -7 -61 -10 -75 -3 -14 -7 -50 -10 -80 -6 -54
-11 -91 -20 -140 -2 -14 -7 -50 -10 -80 -6 -56 -31 -224 -41 -270 -2 -14 -7
-41 -9 -60 -2 -19 -7 -51 -10 -70 -4 -19 -8 -46 -10 -60 -1 -14 -7 -50 -13
-80 -6 -30 -13 -68 -16 -85 -4 -29 -21 -126 -31 -175 -3 -14 -7 -38 -10 -55
-3 -16 -8 -41 -10 -55 -12 -57 -15 -76 -20 -105 -3 -16 -17 -84 -31 -150 -14
-66 -28 -131 -30 -144 -3 -12 -12 -53 -20 -90 -9 -36 -18 -75 -20 -86 -2 -11
-26 -112 -55 -225 -28 -113 -52 -212 -54 -220 -5 -22 -41 -154 -65 -237 -48
-173 -60 -214 -90 -313 -18 -58 -33 -109 -34 -115 -1 -5 -8 -20 -14 -32 -7
-13 -10 -23 -7 -23 2 0 -4 -22 -15 -50 -11 -28 -17 -50 -15 -50 3 0 0 -10 -7
-22 -6 -13 -13 -29 -15 -35 -5 -23 -10 -38 -16 -53 -5 -14 -101 -283 -134
-375 -7 -22 -17 -49 -22 -60 -5 -11 -24 -58 -41 -105 -18 -47 -38 -98 -45
-115 -7 -16 -22 -55 -34 -85 -12 -30 -29 -68 -36 -85 -8 -16 -37 -84 -66 -150
-90 -209 -303 -635 -321 -643 -5 -2 -8 -7 -8 -12 0 -5 -24 -47 -52 -94 -29
-48 -60 -99 -68 -113 -8 -15 -18 -32 -23 -38 -27 -37 -57 -87 -57 -95 0 -6 -4
-10 -10 -10 -5 0 -10 -4 -10 -8 0 -5 -24 -49 -54 -98 -52 -87 -133 -240 -169
-317 l-17 -39 27 6 c16 4 37 8 48 10 11 3 49 12 85 21 36 9 75 18 86 20 12 1
30 8 41 14 11 5 23 8 26 5 3 -3 14 -1 24 4 10 6 34 13 53 16 39 8 65 14 65 16
0 1 7 3 15 5 8 1 35 8 60 15 25 7 50 13 55 15 6 1 21 7 35 12 14 6 29 9 33 6
4 -3 14 1 22 7 8 7 15 10 15 7 0 -3 15 -1 33 4 44 14 178 50 200 54 9 2 21 6
25 9 5 3 22 8 38 11 32 7 42 9 64 18 8 3 26 8 40 11 14 4 147 37 295 75 247
64 478 117 544 127 61 8 88 12 129 19 24 3 58 8 75 10 31 3 121 15 162 20 11
2 20 4 20 5 0 1 9 3 20 5 144 20 306 94 347 157 9 14 23 31 30 39 35 37 104
155 217 373 23 44 46 85 52 93 7 7 8 13 4 13 -5 0 -1 8 7 18 14 16 102 193
148 297 12 28 33 74 46 103 13 29 24 55 24 58 0 3 7 20 15 37 19 43 56 138 60
157 2 8 18 53 35 100 31 85 64 192 101 325 23 81 22 79 44 165 24 98 25 102
31 140 3 19 8 38 10 41 2 3 5 19 8 35 3 16 10 52 16 79 6 28 13 66 16 85 9 57
12 75 14 75 1 0 3 9 4 20 3 27 16 106 21 136 3 13 7 40 9 59 3 19 8 46 10 60
5 24 11 60 21 138 3 20 7 52 10 70 3 17 7 49 10 70 3 20 8 53 11 72 7 39 9 57
19 150 4 36 9 81 11 100 3 19 7 51 9 70 2 19 6 55 9 80 3 25 8 81 11 125 4 44
8 96 10 115 19 191 26 791 11 960 -12 134 -15 166 -21 226 -4 32 -9 70 -11 84
-3 14 -7 43 -10 65 -5 44 -8 61 -20 120 -4 22 -9 49 -10 60 -1 11 -3 20 -4 20
-1 0 -4 14 -6 30 -3 17 -19 84 -35 150 -17 66 -33 131 -35 144 -3 14 -7 28
-10 33 -3 4 -7 16 -9 26 -1 9 -9 37 -16 62 -7 25 -13 48 -15 53 -1 4 -3 9 -4
12 -1 3 -3 8 -4 13 -7 28 -107 337 -121 372 -8 19 -32 85 -54 145 -22 61 -47
128 -56 149 -9 22 -18 47 -20 55 -5 24 -207 520 -247 608 -11 24 -21 49 -22
55 -4 16 -24 68 -66 163 -8 17 -14 32 -15 35 -4 13 -18 48 -30 75 -7 17 -30
71 -51 120 -58 140 -153 356 -174 398 -11 22 -20 45 -20 52 0 7 -4 15 -9 17
-5 2 -11 12 -13 23 -1 11 -7 23 -11 26 -5 3 -10 12 -11 20 -1 8 -16 43 -33 79
-78 165 -127 269 -210 440 -104 213 -143 296 -143 304 0 11 -89 191 -114 231
l-25 40 -1 -570z"/>
<path d="M7065 8399 c8 -225 13 -334 16 -334 1 0 3 -23 4 -52 1 -28 5 -82 9
-120 4 -37 9 -104 12 -148 3 -44 7 -105 9 -135 21 -295 26 -440 26 -690 0
-223 -4 -355 -16 -570 -7 -128 -15 -253 -20 -290 -3 -19 -7 -66 -11 -105 -3
-38 -8 -81 -10 -95 -1 -14 -5 -47 -8 -75 -6 -49 -22 -174 -32 -237 -2 -18 -7
-49 -10 -68 -2 -19 -7 -46 -9 -60 -7 -36 -15 -81 -20 -115 -2 -16 -9 -55 -15
-85 -6 -30 -14 -66 -16 -80 -33 -170 -121 -524 -188 -755 -17 -60 -29 -102
-30 -110 -2 -5 -11 -37 -21 -70 -11 -33 -20 -62 -20 -65 -1 -3 -7 -25 -14 -50
-7 -25 -13 -47 -13 -50 0 -3 -3 -9 -7 -15 -7 -8 -21 -50 -56 -165 -1 -3 -7
-18 -14 -35 -7 -16 -14 -34 -15 -40 -2 -5 -6 -17 -9 -25 -3 -8 -15 -42 -27
-75 -12 -33 -26 -65 -31 -71 -5 -6 -10 -19 -12 -30 -2 -10 -13 -40 -24 -66
-12 -26 -34 -76 -49 -110 -16 -35 -33 -66 -39 -70 -5 -4 -7 -8 -3 -8 12 0 -68
-145 -181 -328 -207 -336 -266 -438 -308 -535 l-13 -28 58 6 c31 3 66 8 77 10
11 3 38 7 60 11 22 3 47 7 55 9 8 2 40 7 70 11 30 4 57 9 60 9 38 10 61 15 90
20 19 2 46 7 60 10 13 2 42 7 65 11 46 7 70 12 70 14 0 1 12 3 26 5 34 4 87
13 118 19 13 3 49 8 80 12 31 3 65 8 76 11 48 10 63 12 120 17 33 3 80 8 105
11 226 24 795 24 1075 0 33 -3 84 -7 113 -9 68 -6 237 -26 337 -41 17 -2 53
-7 80 -11 28 -3 59 -8 70 -10 11 -3 35 -6 54 -9 86 -11 117 -16 131 -20 8 -2
29 -7 45 -9 17 -3 53 -10 80 -16 28 -6 59 -12 70 -14 11 -2 36 -7 55 -10 19
-4 42 -9 50 -11 8 -2 29 -7 47 -10 18 -3 43 -9 57 -15 24 -9 26 -8 27 23 1 17
2 46 4 62 6 55 15 318 14 430 0 61 0 119 1 130 1 11 1 25 1 30 -8 224 -14 321
-37 560 -3 28 -7 69 -9 93 -2 24 -7 60 -10 80 -3 20 -8 57 -11 82 -5 45 -9 68
-20 125 -3 17 -7 44 -9 60 -3 29 -17 104 -56 305 -5 30 -12 66 -15 80 -3 14
-7 33 -10 42 -3 9 -7 25 -9 35 -2 10 -11 47 -20 83 -9 36 -18 76 -21 90 -2 14
-10 41 -16 60 -6 19 -13 42 -14 50 -3 21 -9 43 -69 245 -22 77 -52 168 -73
225 -3 8 -6 21 -8 27 -1 7 -14 46 -29 85 -94 254 -109 294 -117 303 -4 5 -8
14 -8 21 0 6 -8 29 -17 50 -9 22 -17 41 -18 44 -2 5 -6 15 -58 135 -114 266
-295 628 -447 895 -29 52 -56 97 -60 100 -3 3 -11 16 -18 30 -16 31 -22 42
-102 170 -36 58 -70 114 -77 125 -7 11 -16 28 -19 38 -3 9 -10 17 -14 17 -5 0
-12 10 -16 23 -4 12 -10 24 -13 27 -4 3 -40 59 -81 125 -86 140 -282 438 -300
455 -3 3 -25 32 -49 65 -133 181 -370 440 -460 504 l-33 24 7 -194z"/>
<path d="M7277 2354 c-1 -1 -76 -5 -167 -9 -165 -6 -190 -8 -350 -20 -47 -4
-103 -8 -125 -9 -68 -5 -179 -16 -205 -21 -14 -3 -52 -7 -85 -11 -85 -8 -124
-13 -159 -18 -17 -3 -53 -8 -81 -11 -27 -4 -61 -8 -75 -10 -14 -3 -43 -7 -65
-10 -22 -4 -53 -9 -70 -12 -16 -2 -39 -6 -50 -8 -38 -5 -101 -15 -125 -20 -14
-3 -50 -9 -80 -15 -30 -5 -71 -12 -90 -16 -19 -4 -42 -7 -50 -9 -8 -1 -33 -6
-55 -10 -22 -5 -49 -10 -60 -11 -11 -1 -20 -3 -20 -4 0 -2 -9 -4 -20 -5 -11
-2 -72 -15 -135 -29 -63 -13 -128 -27 -145 -30 -57 -11 -75 -15 -83 -19 -4 -3
-23 -8 -42 -11 -53 -8 -204 -53 -287 -85 -81 -32 -223 -110 -223 -123 0 -4 -5
-8 -10 -8 -28 0 -123 -123 -149 -193 l-11 -28 53 6 c28 3 59 8 67 10 50 13
306 31 570 40 327 11 389 15 575 31 44 4 97 7 117 8 21 1 38 3 38 6 0 3 17 5
38 6 20 0 69 4 107 8 39 4 90 9 115 12 25 2 65 6 90 8 25 2 77 7 115 10 39 4
90 9 115 12 25 3 59 6 75 8 17 2 66 7 110 11 44 5 94 9 110 10 43 3 165 15
200 20 17 2 57 7 90 10 33 3 80 8 105 11 25 3 70 7 100 9 30 3 71 7 90 9 19 3
60 8 90 11 30 3 71 8 90 10 19 2 64 7 100 10 36 3 79 8 95 10 17 2 57 7 90 10
33 3 76 8 95 10 19 3 58 7 85 10 28 2 64 6 80 9 17 3 53 7 80 11 73 7 135 15
175 20 19 3 62 7 95 10 33 3 65 8 72 10 7 2 45 7 85 11 40 3 76 8 80 10 14 9
-38 87 -98 148 -49 49 -167 129 -194 131 -3 0 -9 3 -15 7 -10 6 -89 29 -115
34 -8 1 -37 6 -65 12 -27 5 -57 10 -65 10 -8 1 -33 4 -55 7 -36 6 -563 14
-568 9z"/>
<path d="M9697 2034 c-1 -1 -24 -5 -52 -8 -27 -4 -61 -9 -75 -11 -14 -3 -41
-7 -60 -9 -29 -4 -91 -16 -254 -52 -11 -3 -32 -7 -46 -10 -14 -3 -39 -9 -57
-15 -17 -5 -43 -12 -57 -15 -14 -2 -72 -15 -128 -29 -105 -24 -143 -33 -188
-40 -14 -2 -36 -7 -50 -10 -14 -3 -41 -8 -60 -10 -19 -3 -53 -9 -75 -14 -22
-5 -58 -12 -80 -15 -22 -4 -65 -11 -96 -16 -31 -6 -74 -12 -95 -15 -22 -2 -48
-6 -59 -8 -29 -7 -93 -16 -143 -22 -24 -3 -53 -7 -65 -10 -19 -4 -56 -9 -147
-19 -34 -4 -131 -18 -150 -21 -8 -1 -46 -6 -83 -10 -37 -3 -76 -8 -85 -9 -9
-2 -44 -7 -77 -11 -33 -4 -71 -9 -85 -11 -14 -1 -45 -5 -70 -8 -25 -3 -69 -8
-98 -12 -29 -3 -67 -8 -85 -10 -17 -1 -32 -3 -32 -4 0 -1 -13 -3 -30 -4 -74
-7 -172 -18 -194 -21 -14 -3 -54 -7 -90 -11 -36 -4 -79 -8 -96 -10 -16 -2 -52
-6 -80 -9 -27 -3 -68 -7 -90 -10 -79 -10 -181 -18 -222 -19 -24 -1 -43 -3 -43
-6 0 -3 -15 -6 -32 -7 -38 -2 -133 -10 -198 -17 -58 -7 -163 -16 -220 -20 -25
-2 -72 -6 -105 -10 -33 -3 -89 -8 -125 -11 -99 -7 -221 -16 -260 -20 -19 -2
-73 -6 -120 -10 -47 -3 -110 -8 -140 -11 -50 -4 -155 -10 -300 -19 -30 -1 -93
-5 -140 -9 -120 -8 -282 -17 -366 -21 -40 -1 -78 -6 -85 -10 -8 -6 -10 -4 -4
5 5 9 4 11 -3 6 -6 -4 -58 -9 -114 -11 -57 -2 -168 -7 -248 -10 -305 -13 -880
-27 -1201 -28 l-177 -1 15 -49 c95 -320 185 -521 278 -622 77 -83 117 -92 372
-89 109 2 198 3 198 4 0 1 41 3 90 5 108 4 251 14 285 20 14 2 57 7 95 11 87
7 136 13 275 31 25 3 56 7 70 8 14 2 39 5 55 8 17 3 57 8 90 12 32 4 62 8 65
10 3 2 30 6 60 9 30 3 67 8 83 11 15 3 39 7 55 10 40 7 153 26 187 31 17 3 64
11 105 19 69 12 112 20 180 31 14 2 45 9 70 14 25 6 61 12 80 15 32 5 92 15
165 29 64 12 341 62 390 70 17 3 71 12 120 21 87 15 117 20 188 29 17 3 46 7
62 10 88 16 141 24 204 31 30 4 63 9 75 11 11 2 45 6 76 9 31 3 64 7 75 9 11
2 52 7 90 10 39 4 93 9 120 12 202 20 380 28 650 27 201 0 450 -7 450 -13 0 0
23 -3 50 -5 115 -9 162 -14 190 -19 17 -3 53 -8 80 -10 28 -3 64 -9 80 -12 17
-4 39 -8 50 -9 17 -2 47 -7 115 -21 8 -1 53 -15 100 -29 47 -15 90 -28 95 -29
6 -2 17 -6 25 -9 8 -3 42 -13 75 -22 33 -9 69 -18 80 -21 11 -3 57 -7 102 -10
161 -7 226 40 393 286 6 8 32 47 59 86 111 162 209 312 232 354 13 25 26 47
29 50 6 6 38 72 68 140 29 64 64 162 67 185 2 11 6 31 10 45 5 22 3 26 -15 26
-11 0 -22 -1 -23 -2z"/>
<path d="M7097 834 c-1 -1 -65 -4 -142 -8 -77 -4 -158 -9 -180 -11 -22 -2 -67
-7 -100 -10 -33 -2 -71 -7 -85 -9 -14 -2 -54 -7 -90 -11 -36 -3 -74 -8 -85
-10 -11 -2 -42 -7 -70 -10 -27 -3 -57 -8 -65 -10 -8 -2 -37 -6 -65 -10 -44 -5
-296 -47 -365 -60 -14 -3 -40 -8 -59 -11 -18 -3 -43 -8 -55 -10 -11 -3 -57
-11 -101 -19 -44 -8 -91 -17 -105 -20 -14 -3 -41 -8 -60 -11 -19 -3 -43 -7
-52 -10 -19 -6 -50 -12 -93 -19 -16 -3 -41 -8 -55 -10 -14 -3 -36 -8 -50 -10
-14 -3 -41 -8 -60 -11 -19 -3 -64 -12 -100 -19 -36 -8 -92 -19 -125 -25 -33
-5 -71 -12 -85 -15 -22 -4 -87 -15 -180 -30 -75 -12 -100 -17 -145 -25 -27 -5
-88 -14 -135 -20 -47 -5 -94 -12 -105 -14 -18 -3 -133 -16 -195 -21 -14 -1
-25 -3 -25 -4 0 -3 -174 -16 -375 -28 -247 -14 -935 -8 -1225 12 -191 13 -238
16 -315 21 -47 2 -90 6 -97 9 -7 2 -15 1 -17 -4 -11 -17 229 -154 324 -186 3
-1 17 -7 32 -13 30 -12 143 -46 143 -43 0 1 12 -2 28 -8 15 -6 38 -13 50 -15
165 -34 210 -42 290 -51 21 -2 53 -6 70 -9 38 -6 166 -16 247 -20 32 -2 63 -7
69 -10 6 -4 11 -3 11 2 0 5 17 6 38 3 79 -14 1010 -4 1222 13 19 2 76 6 125
10 50 4 106 9 125 12 19 2 58 6 85 9 57 6 87 10 170 20 33 4 71 9 85 10 14 2
42 6 63 9 20 3 54 8 75 11 20 3 66 10 102 16 36 5 76 12 90 14 14 2 50 7 80
10 30 4 57 8 60 10 5 3 67 14 120 20 26 4 137 22 180 31 14 2 42 7 63 10 47 7
72 12 72 14 0 1 14 3 30 5 17 2 46 7 65 10 19 4 46 9 60 11 14 3 48 9 75 14
28 5 65 12 83 15 17 3 47 7 65 10 32 5 61 11 107 21 14 3 41 7 60 9 19 2 46 6
60 9 14 3 41 8 60 10 19 3 47 8 63 10 39 8 135 24 182 31 22 3 54 7 70 10 17
3 48 7 70 11 22 3 54 7 70 10 17 2 48 7 70 9 22 2 56 7 75 9 36 6 107 16 150
21 14 2 58 7 99 10 41 4 84 9 95 11 80 15 476 21 646 10 103 -7 226 -17 280
-21 25 -2 77 -7 115 -10 39 -3 86 -7 105 -9 19 -2 71 -7 115 -11 44 -3 105 -8
135 -11 30 -3 87 -7 125 -9 39 -2 82 -6 97 -8 52 -8 47 10 -16 51 -78 51 -217
120 -316 157 -41 15 -84 31 -95 36 -24 10 -266 70 -298 73 -12 2 -35 6 -52 9
-53 12 -89 17 -150 23 -33 3 -69 8 -80 11 -10 3 -46 7 -80 10 -33 2 -82 6
-110 8 -131 12 -279 16 -618 19 -202 1 -369 1 -370 0z"/>
</g>
</svg>
